<?xml version="1.0" encoding="utf-8"?>
<!-- Generator: Adobe Illustrator 16.0.0, SVG Export Plug-In . SVG Version: 6.00 Build 0)  -->
<!DOCTYPE svg PUBLIC "-//W3C//DTD SVG 1.1//EN" "http://www.w3.org/Graphics/SVG/1.1/DTD/svg11.dtd">
<svg version="1.1" id="Layer_1" xmlns="http://www.w3.org/2000/svg" xmlns:xlink="http://www.w3.org/1999/xlink" x="0px" y="0px"
	 width="100px" height="100px" viewBox="0 0 100 100" enable-background="new 0 0 100 100" xml:space="preserve">
<path fill="#3D8ACA" d="M45.937,31.937c0,0,3.286-3.484-6.271-1.495c0,0-2.986-1.989-23.094,29.463c0,0-1.591,3.289-3.284-1.488
	c-1.692-4.78-2.264-5.988-6.969-3.484c-1.916,1.02-2.488,2.486-2.488,2.486s2.687,10.652,4.58,13.439
	c1.89,2.787,8.459,0.998,8.459,0.998s6.073-9.357,8.362-12.246c2.289-2.887,11.049,7.662,11.049,7.662s11.249-4.279,7.068-6.168
	c-4.18-1.893-12.643-9.457-12.643-9.457S41.657,36.018,45.937,31.937z"/>
<path fill="#3D8ACA" d="M40.311,45.278c0.274,0,0.507,0.087,0.699,0.263c0.192,0.175,0.288,0.386,0.288,0.634v6.275h9.341
	c0,0.494-0.195,0.918-0.584,1.266c-0.387,0.352-0.852,0.527-1.392,0.527h-7.365c-0.544,0-1.01-0.176-1.396-0.527
	c-0.386-0.348-0.58-0.771-0.58-1.266v-6.275c0-0.248,0.096-0.459,0.289-0.634C39.804,45.365,40.036,45.278,40.311,45.278z"/>
<path fill="#3D8ACA" d="M64.65,52.889c0.115,0.152,0.174,0.314,0.174,0.49c0,0.24-0.094,0.443-0.281,0.611s-0.41,0.252-0.668,0.252
	c-0.348,0-0.613-0.131-0.801-0.389l-1.09-1.48h-7.844l-1.115,1.48c-0.184,0.258-0.447,0.389-0.787,0.389
	c-0.266,0-0.49-0.084-0.676-0.252c-0.184-0.168-0.277-0.371-0.277-0.611c0-0.176,0.059-0.338,0.172-0.49l5.162-6.92
	c0.346-0.46,0.826-0.69,1.445-0.69c0.615,0,1.094,0.232,1.436,0.695L64.65,52.889z M58.059,47.11l-2.633,3.54h5.273L58.059,47.11z"
	/>
<path fill="#3D8ACA" d="M79.004,52.889c0.113,0.152,0.17,0.314,0.17,0.49c0,0.24-0.094,0.443-0.279,0.611s-0.41,0.252-0.668,0.252
	c-0.348,0-0.613-0.131-0.799-0.389l-1.092-1.48h-7.844l-1.113,1.48c-0.188,0.258-0.449,0.389-0.787,0.389
	c-0.268,0-0.494-0.084-0.678-0.252c-0.186-0.168-0.277-0.371-0.277-0.611c0-0.176,0.057-0.338,0.172-0.49l5.162-6.92
	c0.346-0.46,0.826-0.69,1.443-0.69s1.096,0.232,1.439,0.695L79.004,52.889z M72.408,47.11l-2.631,3.54h5.275L72.408,47.11z"/>
<path fill="#3D8ACA" d="M82.635,48.946h5.783c0.268,0,0.494-0.087,0.682-0.262c0.189-0.176,0.285-0.385,0.285-0.628
	c0-0.239-0.096-0.449-0.285-0.63c-0.188-0.182-0.414-0.271-0.682-0.271h-6.371v6.273c0,0.252-0.096,0.463-0.289,0.637
	c-0.191,0.174-0.424,0.26-0.697,0.26c-0.275,0-0.508-0.086-0.701-0.26c-0.191-0.174-0.287-0.385-0.287-0.637v-6.273
	c0-0.491,0.191-0.913,0.576-1.265c0.383-0.352,0.852-0.527,1.398-0.527h6.371c0.812,0,1.504,0.262,2.08,0.785
	c0.572,0.522,0.861,1.152,0.861,1.886c0,0.739-0.289,1.369-0.861,1.89c-0.389,0.354-0.832,0.595-1.332,0.72l2,2.221
	c0.146,0.162,0.221,0.352,0.221,0.564c0,0.252-0.098,0.463-0.293,0.637s-0.428,0.26-0.693,0.26c-0.311,0-0.564-0.109-0.766-0.33
	l-2.906-3.254h-2.117c-0.547,0-1.01-0.176-1.396-0.526C82.828,49.865,82.635,49.442,82.635,48.946z"/>
</svg>
