<?xml version="1.0" encoding="utf-8"?>
<!-- Generator: Adobe Illustrator 16.0.0, SVG Export Plug-In . SVG Version: 6.00 Build 0)  -->
<!DOCTYPE svg PUBLIC "-//W3C//DTD SVG 1.1//EN" "http://www.w3.org/Graphics/SVG/1.1/DTD/svg11.dtd">
<svg version="1.1" id="Layer_2" xmlns="http://www.w3.org/2000/svg" xmlns:xlink="http://www.w3.org/1999/xlink" x="0px" y="0px"
	 width="100px" height="100px" viewBox="0 0 100 100" enable-background="new 0 0 100 100" xml:space="preserve">
<circle fill="#3E8AC9" cx="49.66" cy="49.833" r="45.667"/>
<path fill="#FFFFFF" d="M75.598,23.598c0,0,4.287-4.546-8.184-1.95c0,0-3.896-2.596-30.133,38.442c0,0-2.076,4.291-4.285-1.941
	c-2.208-6.238-2.954-7.814-9.093-4.547c-2.5,1.33-3.247,3.244-3.247,3.244s3.506,13.898,5.976,17.535
	c2.466,3.637,11.038,1.303,11.038,1.303s7.924-12.209,10.912-15.979c2.985-3.766,14.416,9.998,14.416,9.998
	s14.677-5.584,9.222-8.049c-5.455-2.469-16.496-12.338-16.496-12.338S70.013,28.922,75.598,23.598z"/>
</svg>
